<svg version="1.1" id="Layer_1" xmlns="http://www.w3.org/2000/svg" x="0" y="0" viewBox="0 0 100 100" style="enable-background:new 0 0 100 100" xml:space="preserve"><style>.st0{fill:#cbaa82}.st1{fill:#d1a97c}.st2{fill:#cbaa82;stroke:#d1a97c;stroke-miterlimit:10}.st3{fill:#fff}</style><path class="st0" d="M-91-633.3c3.4 0 6.1 2.7 6.1 6.1v75.8c0 3.4-2.7 6.1-6.1 6.1h-75.8c-3.4 0-6.1-2.7-6.1-6.1v-75.8c0-3.4 2.7-6.1 6.1-6.1H-91m0-6h-75.8c-6.7 0-12.1 5.4-12.1 12.1v75.8c0 6.7 5.4 12.1 12.1 12.1H-91c6.7 0 12.1-5.4 12.1-12.1v-75.8c0-6.6-5.4-12.1-12.1-12.1z"/><path class="st0" d="M-84.9-583.3v31.9c0 3.4-2.7 6.1-6.1 6.1h-75.8c-3.4 0-6.1-2.7-6.1-6.1v-31.9h88m6-6h-100v37.9c0 6.7 5.4 12.1 12.1 12.1H-91c6.7 0 12.1-5.4 12.1-12.1v-37.9zM-164.9-620.5v7h6.9v-7h4.5v17.1h-4.5v-6.5h-6.9v6.5h-4.5v-17.1h4.5zM-145.8-620.5v17.1h-4.5v-17.1h4.5zM-125.5-603.5l-2.5-4.7H-131.3v4.7h-4.5v-17.1h7.7c4.5 0 7.1 2.2 7.1 6 0 2.6-1.1 4.5-3 5.5l3.6 5.6h-5.1zm-5.7-8.2h3.2c1.8 0 2.8-.9 2.8-2.7 0-1.7-1-2.6-2.8-2.6h-3.2v5.3zM-104.6-620.5v3.6h-9v3.2h8.1v3.5h-8.1v3.2h9.2v3.6h-13.7v-17.1h13.5zM-95.4-617.1c-1.1 0-1.8.4-1.8 1.2 0 2.8 9 1.2 9 7.3 0 3.5-3.1 5.3-6.9 5.3-2.8 0-5.8-1-7.9-2.7l1.7-3.5c1.8 1.5 4.4 2.6 6.2 2.6 1.3 0 2.1-.5 2.1-1.4 0-2.9-9-1.1-9-7.2 0-3.2 2.7-5.2 6.8-5.2 2.5 0 5 .8 6.8 1.9l-1.7 3.5c-1.6-1-3.9-1.8-5.3-1.8z"/><circle class="st0" cx="-140.5" cy="-610.9" r="2.4"/><text transform="translate(-170.61 -558.743)" class="st3" style="font-family:'Montserrat-Bold';font-size:24.3309px">audio</text><path class="st0" d="M63.6-633.3c3.4 0 6.1 2.7 6.1 6.1v75.8c0 3.4-2.7 6.1-6.1 6.1h-75.8c-3.4 0-6.1-2.7-6.1-6.1v-75.8c0-3.4 2.7-6.1 6.1-6.1h75.8m0-6h-75.8c-6.7 0-12.1 5.4-12.1 12.1v75.8c0 6.7 5.4 12.1 12.1 12.1h75.8c6.7 0 12.1-5.4 12.1-12.1v-75.8c0-6.6-5.4-12.1-12.1-12.1zM-91-760.1c3.4 0 6.1 2.7 6.1 6.1v75.8c0 3.4-2.7 6.1-6.1 6.1h-75.8c-3.4 0-6.1-2.7-6.1-6.1V-754c0-3.4 2.7-6.1 6.1-6.1H-91m0-6h-75.8c-6.7 0-12.1 5.4-12.1 12.1v75.8c0 6.7 5.4 12.1 12.1 12.1H-91c6.7 0 12.1-5.4 12.1-12.1V-754c0-6.7-5.4-12.1-12.1-12.1z"/><path class="st0" d="M-164.9-747.4v7h6.9v-7h4.5v17.1h-4.5v-6.5h-6.9v6.5h-4.5v-17.1h4.5zM-145.8-747.4v17.1h-4.5v-17.1h4.5zM-125.5-730.4l-2.5-4.7H-131.3v4.7h-4.5v-17.1h7.7c4.5 0 7.1 2.2 7.1 6 0 2.6-1.1 4.5-3 5.5l3.6 5.6h-5.1zm-5.7-8.2h3.2c1.8 0 2.8-.9 2.8-2.7 0-1.7-1-2.6-2.8-2.6h-3.2v5.3zM-104.6-747.4v3.6h-9v3.2h8.1v3.5h-8.1v3.2h9.2v3.6h-13.7v-17.1h13.5zM-95.4-744c-1.1 0-1.8.4-1.8 1.2 0 2.8 9 1.2 9 7.3 0 3.5-3.1 5.3-6.9 5.3-2.8 0-5.8-1-7.9-2.7l1.7-3.5c1.8 1.5 4.4 2.6 6.2 2.6 1.3 0 2.1-.5 2.1-1.4 0-2.9-9-1.1-9-7.2 0-3.2 2.7-5.2 6.8-5.2 2.5 0 5 .8 6.8 1.9l-1.7 3.5c-1.6-1-3.9-1.8-5.3-1.8z"/><circle class="st0" cx="-140.5" cy="-737.8" r="2.4"/><path class="st0" d="M-124.7-699.1h-2.8v9.8h3c2.6 0 4.4-2 4.4-4.9 0-2.9-1.9-4.9-4.6-4.9zM-97.4-699c-2.6 0-4.7 2.1-4.7 4.9s2.2 4.9 4.7 4.9c2.6 0 4.6-2.1 4.6-4.9s-2-4.9-4.6-4.9zM-163.4-692.1h4.7l-2.3-6z"/><path class="st0" d="M-178.9-716.1v37.9c0 6.7 5.4 12.1 12.1 12.1H-91c6.7 0 12.1-5.4 12.1-12.1v-37.9h-100zm22.7 30.5-1.2-3h-7.4l-1.2 3h-4.6l7.3-17.1h4.6l7.2 17.1h-4.7zm21.2-7.2c0 4.5-3 7.3-7.8 7.3s-7.9-2.8-7.9-7.3v-9.9h4.5v9.9c0 2.2 1.5 3.6 3.5 3.6s3.3-1.3 3.3-3.6v-9.9h4.5v9.9zm10.2 7.2h-7.2v-17.1h7.4c5.4 0 9.1 3.5 9.1 8.5 0 5.1-3.7 8.6-9.3 8.6zm15.9 0h-4.5v-17.1h4.5v17.1zm11.5.2c-5.3 0-9.2-3.7-9.2-8.7 0-5 3.9-8.6 9.2-8.6s9.2 3.7 9.2 8.6c0 4.9-3.9 8.7-9.2 8.7zM71.8 52.5v-7.3h.8c2 0 3.2 1.4 3.2 3.7 0 .8-.2 3.6-3 3.6h-1z"/><path class="st1" d="M72.5 42.2h-3.8v13.3h4.1c3.5 0 6-2.7 6-6.6 0-4-2.6-6.7-6.3-6.7z"/><path class="st0" d="M25.3 52.5v-7.3h.8c2 0 3.2 1.4 3.2 3.7 0 .8-.2 3.6-3 3.6h-1z"/><path class="st1" d="M26.1 42.2h-3.8v13.3h4.1c3.5 0 6-2.7 6-6.6-.1-4-2.7-6.7-6.3-6.7z"/><path class="st0" d="M12.1 97c-5 0-9.1-4.1-9.1-9.1V12.1C3 7.1 7.1 3 12.1 3h75.8c5 0 9.1 4.1 9.1 9.1v75.8c0 5-4.1 9.1-9.1 9.1H12.1zm25.8-37.8c3.3 2.7 8 4.4 12.5 4.4 3.9 0 7.2-1.2 9.3-3.2v3h12.7c9.1 0 15.5-6 15.5-14.5s-6.3-14.5-15.3-14.5H59.7v1.9c-2.8-1.4-6.1-2.2-9.3-2.2-5.7 0-9.9 2.4-11.5 6.3-2.6-3.8-7.2-6-12.7-6H13.3v29.1H26c4.8 0 8.8-1.6 11.6-4.4l.3.1zm21.8-12.5.1-.2-.1.2z"/><path class="st1" d="M87.9 6c3.4 0 6.1 2.7 6.1 6.1v75.8c0 3.4-2.7 6.1-6.1 6.1H12.1C8.7 94 6 91.3 6 87.9V12.1C6 8.7 8.7 6 12.1 6h75.8M38.6 35.6c-3.2-2.7-7.4-4.3-12.3-4.3H10.4v35.1H26c4.5 0 8.5-1.3 11.7-3.6 3.7 2.4 8.3 3.8 12.8 3.8 2.3 0 4.4-.4 6.3-1v.8h15.7C83.2 66.4 91 59 91 48.9s-7.7-17.5-18.3-17.5H56.8v.6c-2-.6-4.2-.9-6.3-.9-5.1 0-9.3 1.7-11.9 4.5M87.9 0H12.1C5.4 0 0 5.4 0 12.1v75.8C0 94.6 5.4 100 12.1 100h75.8c6.7 0 12.1-5.4 12.1-12.1V12.1C100 5.4 94.6 0 87.9 0zM50.5 55.7c1.8 0 2.9-.7 2.9-1.9 0-3.9-12.1-1.5-12.1-9.7 0-4.3 3.7-7 9.2-7 3.4 0 6.8 1.1 9.2 2.6l-2.3 4.8C55 43.1 51.9 42 50 42c-1.4 0-2.4.5-2.4 1.6 0 3.8 12.1 1.6 12.1 9.9 0 4.7-4.1 7.1-9.3 7.1-3.8 0-7.9-1.4-10.6-3.7l2.3-4.7c2.4 2.1 6 3.5 8.4 3.5zm12.2 4.7V37.3h9.9c7.3 0 12.3 4.7 12.3 11.5 0 6.9-5 11.5-12.5 11.5h-9.7v.1zm-46.4 0V37.3h9.9c7.3 0 12.3 4.7 12.3 11.5 0 6.9-5 11.5-12.5 11.5h-9.7v.1z"/><path class="st0" d="M-12.2-794.5c-5 0-9.1-4.1-9.1-9.1v-75.8c0-5 4.1-9.1 9.1-9.1h75.8c5 0 9.1 4.1 9.1 9.1v75.8c0 5-4.1 9.1-9.1 9.1h-75.8z"/><path class="st0" d="M63.6-885.5c3.4 0 6.1 2.7 6.1 6.1v75.8c0 3.4-2.7 6.1-6.1 6.1h-75.8c-3.4 0-6.1-2.7-6.1-6.1v-75.8c0-3.4 2.7-6.1 6.1-6.1h75.8m0-6h-75.8c-6.7 0-12.1 5.4-12.1 12.1v75.8c0 6.7 5.4 12.1 12.1 12.1h75.8c6.7 0 12.1-5.4 12.1-12.1v-75.8c0-6.7-5.4-12.1-12.1-12.1z"/><text transform="translate(-10.23 -831.128)" class="st3" style="font-family:'Montserrat-Bold';font-size:32.9013px">dsd</text><text transform="translate(-10.23 -578.716)" class="st3" style="font-family:'Montserrat-Bold';font-size:32.9013px">dsd</text><path class="st0" d="M63.6-760.1c3.4 0 6.1 2.7 6.1 6.1v75.8c0 3.4-2.7 6.1-6.1 6.1h-75.8c-3.4 0-6.1-2.7-6.1-6.1V-754c0-3.4 2.7-6.1 6.1-6.1h75.8m0-6h-75.8c-6.7 0-12.1 5.4-12.1 12.1v75.8c0 6.7 5.4 12.1 12.1 12.1h75.8c6.7 0 12.1-5.4 12.1-12.1V-754c0-6.7-5.4-12.1-12.1-12.1z"/><text transform="translate(-10.23 -705.6)" class="st0" style="font-family:'Montserrat-Bold';font-size:32.9013px">dsd</text><path class="st0" d="M-91 6c3.4 0 6.1 2.7 6.1 6.1v75.8c0 3.4-2.7 6.1-6.1 6.1h-75.8c-3.4 0-6.1-2.7-6.1-6.1V12.1c0-3.4 2.7-6.1 6.1-6.1H-91m0-6h-75.8c-6.7 0-12.1 5.4-12.1 12.1v75.8c0 6.7 5.4 12.1 12.1 12.1H-91c6.7 0 12.1-5.4 12.1-12.1V12.1C-78.9 5.4-84.3 0-91 0z"/><path class="st0" d="M-155.1 21.1v14h13.8v-14h8.9v34.3h-8.9V42.2h-13.8v13.2h-8.9V21.1h8.9zM-92.6 38.2c0 10.2-7.5 17.2-18.6 17.2h-14.4V21.1h14.8c10.8 0 18.2 7 18.2 17.1zm-9.2.1c0-5.9-3.9-9.9-9.3-9.9h-5.6v19.8h6.1c5.2-.1 8.8-4 8.8-9.9zM11.8 237.1c-5 0-9.1-4.1-9.1-9.1v-75.8c0-5 4.1-9.1 9.1-9.1h75.8c5 0 9.1 4.1 9.1 9.1V228c0 5-4.1 9.1-9.1 9.1H11.8zm37.6-26.9h17.4c12.7 0 21.6-8.3 21.6-20.2 0-11.8-8.7-20.1-21.2-20.1H49.4v40.3zm-15.6 0h14.9V170H33.8v14H26v-14H11v40.3h15v-13.2h7.8v13.1z"/><path class="st1" d="M87.6 146.1c3.4 0 6.1 2.7 6.1 6.1V228c0 3.4-2.7 6.1-6.1 6.1H11.8c-3.4 0-6.1-2.7-6.1-6.1v-75.8c0-3.4 2.7-6.1 6.1-6.1h75.8M51.8 167H30.9v14H29v-14H8v46.3h21v-13.2h1.8v13.2h35.9c14.5 0 24.6-9.5 24.6-23.2 0-6.6-2.5-12.5-6.9-16.7-4.4-4.1-10.5-6.4-17.3-6.4H51.8m35.8-26.9H11.8c-6.7 0-12.1 5.4-12.1 12.1V228c0 6.7 5.4 12.1 12.1 12.1h75.8c6.7 0 12.1-5.4 12.1-12.1v-75.8c0-6.7-5.4-12.1-12.1-12.1zm-35.2 67.1V173h14.8c10.9 0 18.2 6.9 18.2 17.1 0 10.2-7.5 17.2-18.6 17.2H52.4v-.1zM23 186.9h13.8v-14h8.9v34.3h-8.9V194H23v13.2h-9V173h9v13.9z"/><path class="st0" d="M64.4 197v-13.8H67c3.8 0 6.3 2.7 6.3 6.9 0 4.1-2.3 6.8-5.8 6.8h-3.1z"/><path class="st1" d="M67.4 186.3c2.5.2 2.9 2.5 2.9 3.9s-.4 3.8-2.8 3.8h-.1v-7.7m-.4-6.1h-5.6V200h6.1c5.2 0 8.8-4 8.8-9.8 0-5.9-3.9-10-9.3-10zM-91-239c3.4 0 6.1 2.7 6.1 6.1v75.8c0 3.4-2.7 6.1-6.1 6.1h-75.8c-3.4 0-6.1-2.7-6.1-6.1v-75.8c0-3.4 2.7-6.1 6.1-6.1H-91m0-6h-75.8c-6.7 0-12.1 5.4-12.1 12.1v75.8c0 6.7 5.4 12.1 12.1 12.1H-91c6.7 0 12.1-5.4 12.1-12.1v-75.8c0-6.7-5.4-12.1-12.1-12.1z"/><path class="st2" d="M-155.2-212.2v14h13.8v-14h8.9v34.3h-8.9V-191h-13.8v13.2h-8.9v-34.3h8.9zM-92.8-195c0 10.2-7.5 17.2-18.6 17.2h-14.4v-34.3h14.8c10.8-.1 18.2 6.9 18.2 17.1zm-9.1 0c0-5.9-3.9-9.9-9.3-9.9h-5.6v19.8h6.1c5.1 0 8.8-4 8.8-9.9z"/><path class="st0" d="M-91-358.5c3.4 0 6.1 2.7 6.1 6.1v75.8c0 3.4-2.7 6.1-6.1 6.1h-75.8c-3.4 0-6.1-2.7-6.1-6.1v-75.8c0-3.4 2.7-6.1 6.1-6.1H-91m0-6h-75.8c-6.7 0-12.1 5.4-12.1 12.1v75.8c0 6.7 5.4 12.1 12.1 12.1H-91c6.7 0 12.1-5.4 12.1-12.1v-75.8c0-6.6-5.4-12.1-12.1-12.1z"/><path class="st0" d="M-124.7-290.2h-2.8v9.8h3c2.6 0 4.4-2 4.4-4.9 0-2.9-1.9-4.9-4.6-4.9zM-97.4-290.2c-2.6 0-4.7 2.1-4.7 4.9s2.2 4.9 4.7 4.9c2.6 0 4.6-2.1 4.6-4.9s-2-4.9-4.6-4.9z"/><path class="st0" d="M-178.9-303.2v26.6c0 6.7 5.4 12.1 12.1 12.1H-91c6.7 0 12.1-5.4 12.1-12.1v-26.6h-100zm22.7 26.4-1.2-3h-7.4l-1.2 3h-4.6l7.3-17.1h4.6l7.2 17.1h-4.7zm21.2-7.2c0 4.5-3 7.3-7.8 7.3s-7.9-2.8-7.9-7.3v-9.9h4.5v9.9c0 2.2 1.5 3.6 3.5 3.6s3.3-1.3 3.3-3.6v-9.9h4.5v9.9zm10.2 7.2h-7.2v-17.1h7.4c5.4 0 9.1 3.5 9.1 8.5 0 5.1-3.7 8.6-9.3 8.6zm15.9 0h-4.5v-17.1h4.5v17.1zm11.5.2c-5.3 0-9.2-3.7-9.2-8.7 0-5 3.9-8.6 9.2-8.6s9.2 3.7 9.2 8.6c0 4.9-3.9 8.7-9.2 8.7z"/><path class="st0" d="M-163.4-283.2h4.7l-2.3-6.1zM-153.1-345.3v12.9h12.7v-12.9h8.2v31.6h-8.2v-12.1h-12.7v12.1h-8.2v-31.6h8.2zM-95.6-329.6c0 9.4-6.9 15.8-17.1 15.8H-126v-31.6h13.6c10 .1 16.8 6.5 16.8 15.8zm-8.4.1c0-5.4-3.6-9.1-8.6-9.1h-5.2v18.2h5.6c4.8 0 8.2-3.7 8.2-9.1zM-91-488.7c3.4 0 6.1 2.7 6.1 6.1v75.8c0 3.4-2.7 6.1-6.1 6.1h-75.8c-3.4 0-6.1-2.7-6.1-6.1v-75.8c0-3.4 2.7-6.1 6.1-6.1H-91m0-6h-75.8c-6.7 0-12.1 5.4-12.1 12.1v75.8c0 6.7 5.4 12.1 12.1 12.1H-91c6.7 0 12.1-5.4 12.1-12.1v-75.8c0-6.7-5.4-12.1-12.1-12.1z"/><path class="st0" d="M-91-394.7h-75.8c-6.7 0-12.1-5.4-12.1-12.1v-26.6h100v26.6c0 6.7-5.4 12.1-12.1 12.1z"/><path class="st3" d="M-157.3-410.1h-7.4l-1.2 3h-4.6l7.3-17.1h4.6l7.2 17.1h-4.7l-1.2-3zm-1.4-3.4-2.3-6.1-2.4 6.1h4.7zM-142.7-410.6c2 0 3.3-1.3 3.3-3.6v-9.9h4.5v9.9c0 4.5-3 7.3-7.8 7.3s-7.9-2.8-7.9-7.3v-9.9h4.5v9.9c-.1 2.2 1.3 3.6 3.4 3.6zM-115.5-415.6c0 5.1-3.7 8.5-9.2 8.5h-7.2v-17.1h7.4c5.3.1 9 3.6 9 8.6zm-4.6.1c0-2.9-1.9-4.9-4.6-4.9h-2.8v9.8h3c2.6 0 4.4-2 4.4-4.9zM-108.9-424.1v17.1h-4.5v-17.1h4.5zM-88.2-415.6c0 5-3.9 8.7-9.2 8.7s-9.2-3.7-9.2-8.7c0-5 3.9-8.6 9.2-8.6s9.2 3.7 9.2 8.6zm-13.9 0c0 2.8 2.2 4.9 4.7 4.9 2.6 0 4.6-2.1 4.6-4.9s-2-4.9-4.6-4.9c-2.5.1-4.7 2.2-4.7 4.9zM-153.7 76.1h-6.4l-1 2.6h-4l6.4-14.9h4l6.2 14.9h-4.1l-1.1-2.6zm-1.1-3-2-5.3-2.1 5.3h4.1zM-140.9 75.6c1.7 0 2.9-1.2 2.9-3.1v-8.6h3.9v8.6c0 3.9-2.6 6.4-6.8 6.4-4.2 0-6.9-2.5-6.9-6.4v-8.6h3.9v8.6c0 1.9 1.2 3.1 3 3.1zM-117.1 71.3c0 4.4-3.3 7.5-8.1 7.5h-6.3v-15h6.4c4.8 0 8 3 8 7.5zm-4 0c0-2.6-1.7-4.3-4-4.3h-2.4v8.6h2.6c2.2 0 3.8-1.7 3.8-4.3zM-111.3 63.8v14.9h-3.9V63.8h3.9zM-93.3 71.3c0 4.4-3.4 7.6-8.1 7.6s-8.1-3.3-8.1-7.6 3.4-7.5 8.1-7.5 8.1 3.1 8.1 7.5zm-12.1 0c0 2.4 1.9 4.3 4.1 4.3 2.2 0 4-1.9 4-4.3s-1.8-4.2-4-4.2c-2.2-.1-4.1 1.8-4.1 4.2z"/><path class="st0" d="M-91-116.8c3.4 0 6.1 2.7 6.1 6.1v75.8c0 3.4-2.7 6.1-6.1 6.1h-75.8c-3.4 0-6.1-2.7-6.1-6.1v-75.8c0-3.4 2.7-6.1 6.1-6.1H-91m0-6h-75.8c-6.7 0-12.1 5.4-12.1 12.1v75.8c0 6.7 5.4 12.1 12.1 12.1H-91c6.7 0 12.1-5.4 12.1-12.1v-75.8c0-6.7-5.4-12.1-12.1-12.1z"/><path class="st0" d="M-155.1-101.7v14h13.8v-14h8.9v34.3h-8.9v-13.2h-13.8v13.2h-8.9v-34.3h8.9zM-92.6-84.6c0 10.2-7.5 17.2-18.6 17.2h-14.4v-34.3h14.8c10.8 0 18.2 7 18.2 17.1zm-9.2.1c0-5.9-3.9-9.9-9.3-9.9h-5.6v19.8h6.1c5.2 0 8.8-4 8.8-9.9zM-153.7-46.7h-6.4l-1 2.6h-4l6.4-14.9h4l6.2 14.9h-4.1l-1.1-2.6zm-1.1-3-2-5.3-2.1 5.3h4.1zM-140.9-47.2c1.7 0 2.9-1.2 2.9-3.1V-59h3.9v8.6c0 3.9-2.6 6.4-6.8 6.4-4.2 0-6.9-2.5-6.9-6.4V-59h3.9v8.6c0 2 1.2 3.2 3 3.2zM-117.1-51.5c0 4.4-3.3 7.5-8.1 7.5h-6.3v-15h6.4c4.8 0 8 3.1 8 7.5zm-4 0c0-2.6-1.7-4.3-4-4.3h-2.4v8.6h2.6c2.2 0 3.8-1.7 3.8-4.3zM-111.3-59v14.9h-3.9V-59h3.9zM-93.3-51.5c0 4.4-3.4 7.6-8.1 7.6s-8.1-3.3-8.1-7.6 3.4-7.5 8.1-7.5 8.1 3.2 8.1 7.5zm-12.1 0c0 2.4 1.9 4.3 4.1 4.3 2.2 0 4-1.9 4-4.3s-1.8-4.2-4-4.2c-2.2-.1-4.1 1.8-4.1 4.2zM-153.1-475.6v12.9h12.7v-12.9h8.2v31.6h-8.2v-12.1h-12.7v12.1h-8.2v-31.6h8.2zM-95.6-459.8c0 9.4-6.9 15.8-17.1 15.8H-126v-31.6h13.6c10 0 16.8 6.4 16.8 15.8zm-8.4.1c0-5.4-3.6-9.1-8.6-9.1h-5.2v18.2h5.6c4.8-.1 8.2-3.7 8.2-9.1zM-91-885.5c3.4 0 6.1 2.7 6.1 6.1v75.8c0 3.4-2.7 6.1-6.1 6.1h-75.8c-3.4 0-6.1-2.7-6.1-6.1v-75.8c0-3.4 2.7-6.1 6.1-6.1H-91m0-6h-75.8c-6.7 0-12.1 5.4-12.1 12.1v75.8c0 6.7 5.4 12.1 12.1 12.1H-91c6.7 0 12.1-5.4 12.1-12.1v-75.8c0-6.7-5.4-12.1-12.1-12.1z"/><path class="st0" d="M-91-791.5h-75.8c-6.7 0-12.1-5.4-12.1-12.1v-37.9h100v37.9c0 6.6-5.4 12.1-12.1 12.1zM-164.9-872.8v7h6.9v-7h4.5v17.1h-4.5v-6.5h-6.9v6.5h-4.5v-17.1h4.5zM-145.8-872.8v17.1h-4.5v-17.1h4.5zM-125.5-855.8l-2.5-4.7H-131.3v4.7h-4.5v-17.1h7.7c4.5 0 7.1 2.2 7.1 6 0 2.6-1.1 4.5-3 5.5l3.6 5.6h-5.1zm-5.7-8.2h3.2c1.8 0 2.8-.9 2.8-2.7 0-1.7-1-2.6-2.8-2.6h-3.2v5.3zM-104.6-872.8v3.6h-9v3.2h8.1v3.5h-8.1v3.2h9.2v3.6h-13.7v-17.1h13.5zM-95.4-869.4c-1.1 0-1.8.4-1.8 1.2 0 2.8 9 1.2 9 7.3 0 3.5-3.1 5.3-6.9 5.3-2.8 0-5.8-1-7.9-2.7l1.7-3.5c1.8 1.5 4.4 2.6 6.2 2.6 1.3 0 2.1-.5 2.1-1.4 0-2.9-9-1.1-9-7.2 0-3.2 2.7-5.2 6.8-5.2 2.5 0 5 .8 6.8 1.9l-1.7 3.5c-1.6-1-3.9-1.8-5.3-1.8z"/><circle class="st0" cx="-140.5" cy="-863.2" r="2.4"/><text transform="translate(-170.61 -811.021)" class="st3" style="font-family:'Montserrat-Bold';font-size:24.3309px">audio</text><path class="st1" d="M51.4-276.6h123.9v136.1H51.4z"/></svg>