<svg version="1.1" id="Layer_1" xmlns="http://www.w3.org/2000/svg" x="0" y="0" viewBox="0 0 100 100" style="enable-background:new 0 0 100 100" xml:space="preserve"><style>.st0{fill:#cbaa82}.st1{fill:#d1a97c}.st2{fill:#cbaa82;stroke:#d1a97c;stroke-miterlimit:10}.st3{fill:#fff}</style><path class="st0" d="M-91-773.3c3.4 0 6.1 2.7 6.1 6.1v75.8c0 3.4-2.7 6.1-6.1 6.1h-75.8c-3.4 0-6.1-2.7-6.1-6.1v-75.8c0-3.4 2.7-6.1 6.1-6.1H-91m0-6h-75.8c-6.7 0-12.1 5.4-12.1 12.1v75.8c0 6.7 5.4 12.1 12.1 12.1H-91c6.7 0 12.1-5.4 12.1-12.1v-75.8c0-6.7-5.4-12.1-12.1-12.1z"/><path class="st0" d="M-84.9-723.3v31.9c0 3.4-2.7 6.1-6.1 6.1h-75.8c-3.4 0-6.1-2.7-6.1-6.1v-31.9h88m6-6h-100v37.9c0 6.7 5.4 12.1 12.1 12.1H-91c6.7 0 12.1-5.4 12.1-12.1v-37.9zM-164.9-760.6v7h6.9v-7h4.5v17.1h-4.5v-6.5h-6.9v6.5h-4.5v-17.1h4.5zM-145.8-760.6v17.1h-4.5v-17.1h4.5zM-125.5-743.6l-2.5-4.7H-131.3v4.7h-4.5v-17.1h7.7c4.5 0 7.1 2.2 7.1 6 0 2.6-1.1 4.5-3 5.5l3.6 5.6h-5.1zm-5.7-8.2h3.2c1.8 0 2.8-.9 2.8-2.7 0-1.7-1-2.6-2.8-2.6h-3.2v5.3zM-104.6-760.6v3.6h-9v3.2h8.1v3.5h-8.1v3.2h9.2v3.6h-13.7v-17.1h13.5zM-95.4-757.2c-1.1 0-1.8.4-1.8 1.2 0 2.8 9 1.2 9 7.3 0 3.5-3.1 5.3-6.9 5.3-2.8 0-5.8-1-7.9-2.7l1.7-3.5c1.8 1.5 4.4 2.6 6.2 2.6 1.3 0 2.1-.5 2.1-1.4 0-2.9-9-1.1-9-7.2 0-3.2 2.7-5.2 6.8-5.2 2.5 0 5 .8 6.8 1.9l-1.7 3.5c-1.6-1-3.9-1.8-5.3-1.8z"/><circle class="st0" cx="-140.5" cy="-751" r="2.4"/><text transform="translate(-170.61 -698.835)" class="st3" style="font-family:'Montserrat-Bold';font-size:24.3309px">audio</text><path class="st0" d="M63.6-773.3c3.4 0 6.1 2.7 6.1 6.1v75.8c0 3.4-2.7 6.1-6.1 6.1h-75.8c-3.4 0-6.1-2.7-6.1-6.1v-75.8c0-3.4 2.7-6.1 6.1-6.1h75.8m0-6h-75.8c-6.7 0-12.1 5.4-12.1 12.1v75.8c0 6.7 5.4 12.1 12.1 12.1h75.8c6.7 0 12.1-5.4 12.1-12.1v-75.8c0-6.7-5.4-12.1-12.1-12.1zM-91-900.2c3.4 0 6.1 2.7 6.1 6.1v75.8c0 3.4-2.7 6.1-6.1 6.1h-75.8c-3.4 0-6.1-2.7-6.1-6.1v-75.8c0-3.4 2.7-6.1 6.1-6.1H-91m0-6h-75.8c-6.7 0-12.1 5.4-12.1 12.1v75.8c0 6.7 5.4 12.1 12.1 12.1H-91c6.7 0 12.1-5.4 12.1-12.1v-75.8c0-6.7-5.4-12.1-12.1-12.1z"/><path class="st0" d="M-164.9-887.5v7h6.9v-7h4.5v17.1h-4.5v-6.5h-6.9v6.5h-4.5v-17.1h4.5zM-145.8-887.5v17.1h-4.5v-17.1h4.5zM-125.5-870.5l-2.5-4.7H-131.3v4.7h-4.5v-17.1h7.7c4.5 0 7.1 2.2 7.1 6 0 2.6-1.1 4.5-3 5.5l3.6 5.6h-5.1zm-5.7-8.2h3.2c1.8 0 2.8-.9 2.8-2.7 0-1.7-1-2.6-2.8-2.6h-3.2v5.3zM-104.6-887.5v3.6h-9v3.2h8.1v3.5h-8.1v3.2h9.2v3.6h-13.7v-17.1h13.5zM-95.4-884.1c-1.1 0-1.8.4-1.8 1.2 0 2.8 9 1.2 9 7.3 0 3.5-3.1 5.3-6.9 5.3-2.8 0-5.8-1-7.9-2.7l1.7-3.5c1.8 1.5 4.4 2.6 6.2 2.6 1.3 0 2.1-.5 2.1-1.4 0-2.9-9-1.1-9-7.2 0-3.2 2.7-5.2 6.8-5.2 2.5 0 5 .8 6.8 1.9l-1.7 3.5c-1.6-1-3.9-1.8-5.3-1.8z"/><circle class="st0" cx="-140.5" cy="-877.9" r="2.4"/><path class="st0" d="M-124.7-839.2h-2.8v9.8h3c2.6 0 4.4-2 4.4-4.9 0-2.9-1.9-4.9-4.6-4.9zM-97.4-839.1c-2.6 0-4.7 2.1-4.7 4.9s2.2 4.9 4.7 4.9c2.6 0 4.6-2.1 4.6-4.9s-2-4.9-4.6-4.9zM-163.4-832.1h4.7l-2.3-6.1z"/><path class="st0" d="M-178.9-856.2v37.9c0 6.7 5.4 12.1 12.1 12.1H-91c6.7 0 12.1-5.4 12.1-12.1v-37.9h-100zm22.7 30.5-1.2-3h-7.4l-1.2 3h-4.6l7.3-17.1h4.6l7.2 17.1h-4.7zm21.2-7.2c0 4.5-3 7.3-7.8 7.3s-7.9-2.8-7.9-7.3v-9.9h4.5v9.9c0 2.2 1.5 3.6 3.5 3.6s3.3-1.3 3.3-3.6v-9.9h4.5v9.9zm10.2 7.2h-7.2v-17.1h7.4c5.4 0 9.1 3.5 9.1 8.5 0 5.1-3.7 8.6-9.3 8.6zm15.9 0h-4.5v-17.1h4.5v17.1zm11.5.2c-5.3 0-9.2-3.7-9.2-8.7 0-5 3.9-8.6 9.2-8.6s9.2 3.7 9.2 8.6c0 4.9-3.9 8.7-9.2 8.7zM71.8-87.6v-7.3h.8c2 0 3.2 1.4 3.2 3.7 0 .8-.2 3.6-3 3.6h-1z"/><path class="st1" d="M72.5-97.8h-3.8v13.3h4.1c3.5 0 6-2.7 6-6.6 0-4-2.6-6.7-6.3-6.7z"/><path class="st0" d="M25.3-87.6v-7.3h.8c2 0 3.2 1.4 3.2 3.7 0 .8-.2 3.6-3 3.6h-1z"/><path class="st1" d="M26.1-97.8h-3.8v13.3h4.1c3.5 0 6-2.7 6-6.6-.1-4-2.7-6.7-6.3-6.7z"/><path class="st0" d="M12.1-43.1c-5 0-9.1-4.1-9.1-9.1V-128c0-5 4.1-9.1 9.1-9.1h75.8c5 0 9.1 4.1 9.1 9.1v75.8c0 5-4.1 9.1-9.1 9.1H12.1zm25.8-37.8c3.3 2.7 8 4.4 12.5 4.4 3.9 0 7.2-1.2 9.3-3.2v3h12.7c9.1 0 15.5-6 15.5-14.5s-6.3-14.5-15.3-14.5H59.7v1.9c-2.8-1.4-6.1-2.2-9.3-2.2-5.7 0-9.9 2.4-11.5 6.3-2.6-3.8-7.2-6-12.7-6H13.3v29.1H26c4.8 0 8.8-1.6 11.6-4.4l.3.1zm21.8-12.5.1-.2-.1.2z"/><path class="st1" d="M87.9-134.1c3.4 0 6.1 2.7 6.1 6.1v75.8c0 3.4-2.7 6.1-6.1 6.1H12.1c-3.4 0-6.1-2.7-6.1-6.1V-128c0-3.4 2.7-6.1 6.1-6.1h75.8m-49.3 29.6c-3.2-2.7-7.4-4.3-12.3-4.3H10.4v35.1H26c4.5 0 8.5-1.3 11.7-3.6 3.7 2.4 8.3 3.8 12.8 3.8 2.3 0 4.4-.4 6.3-1v.8h15.7c10.7 0 18.5-7.4 18.5-17.5s-7.7-17.5-18.3-17.5H56.8v.6c-2-.6-4.2-.9-6.3-.9-5.1 0-9.3 1.7-11.9 4.5m49.3-35.6H12.1C5.4-140.1 0-134.7 0-128v75.8c0 6.7 5.4 12.1 12.1 12.1h75.8c6.7 0 12.1-5.4 12.1-12.1V-128c0-6.7-5.4-12.1-12.1-12.1zM50.5-84.4c1.8 0 2.9-.7 2.9-1.9 0-3.9-12.1-1.5-12.1-9.7 0-4.3 3.7-7 9.2-7 3.4 0 6.8 1.1 9.2 2.6l-2.3 4.8C55-97 51.9-98.1 50-98.1c-1.4 0-2.4.5-2.4 1.6 0 3.8 12.1 1.6 12.1 9.9 0 4.7-4.1 7.1-9.3 7.1-3.8 0-7.9-1.4-10.6-3.7l2.3-4.7c2.4 2.1 6 3.5 8.4 3.5zm12.2 4.7v-23.1h9.9c7.3 0 12.3 4.7 12.3 11.5 0 6.9-5 11.5-12.5 11.5h-9.7v.1zm-46.4 0v-23.1h9.9c7.3 0 12.3 4.7 12.3 11.5 0 6.9-5 11.5-12.5 11.5h-9.7v.1z"/><path class="st0" d="M-12.2-934.6c-5 0-9.1-4.1-9.1-9.1v-75.8c0-5 4.1-9.1 9.1-9.1h75.8c5 0 9.1 4.1 9.1 9.1v75.8c0 5-4.1 9.1-9.1 9.1h-75.8z"/><path class="st0" d="M63.6-1025.6c3.4 0 6.1 2.7 6.1 6.1v75.8c0 3.4-2.7 6.1-6.1 6.1h-75.8c-3.4 0-6.1-2.7-6.1-6.1v-75.8c0-3.4 2.7-6.1 6.1-6.1h75.8m0-6h-75.8c-6.7 0-12.1 5.4-12.1 12.1v75.8c0 6.7 5.4 12.1 12.1 12.1h75.8c6.7 0 12.1-5.4 12.1-12.1v-75.8c0-6.7-5.4-12.1-12.1-12.1z"/><text transform="translate(-10.23 -971.22)" class="st3" style="font-family:'Montserrat-Bold';font-size:32.9013px">dsd</text><text transform="translate(-10.23 -718.81)" class="st3" style="font-family:'Montserrat-Bold';font-size:32.9013px">dsd</text><path class="st0" d="M63.6-900.2c3.4 0 6.1 2.7 6.1 6.1v75.8c0 3.4-2.7 6.1-6.1 6.1h-75.8c-3.4 0-6.1-2.7-6.1-6.1v-75.8c0-3.4 2.7-6.1 6.1-6.1h75.8m0-6h-75.8c-6.7 0-12.1 5.4-12.1 12.1v75.8c0 6.7 5.4 12.1 12.1 12.1h75.8c6.7 0 12.1-5.4 12.1-12.1v-75.8c0-6.7-5.4-12.1-12.1-12.1z"/><text transform="translate(-10.23 -845.693)" class="st0" style="font-family:'Montserrat-Bold';font-size:32.9013px">dsd</text><path class="st0" d="M-91-134.1c3.4 0 6.1 2.7 6.1 6.1v75.8c0 3.4-2.7 6.1-6.1 6.1h-75.8c-3.4 0-6.1-2.7-6.1-6.1V-128c0-3.4 2.7-6.1 6.1-6.1H-91m0-6h-75.8c-6.7 0-12.1 5.4-12.1 12.1v75.8c0 6.7 5.4 12.1 12.1 12.1H-91c6.7 0 12.1-5.4 12.1-12.1V-128c0-6.7-5.4-12.1-12.1-12.1z"/><path class="st0" d="M-155.1-119v14h13.8v-14h8.9v34.3h-8.9v-13.2h-13.8v13.2h-8.9V-119h8.9zM-92.6-101.9c0 10.2-7.5 17.2-18.6 17.2h-14.4V-119h14.8c10.8 0 18.2 7 18.2 17.1zm-9.2.1c0-5.9-3.9-9.9-9.3-9.9h-5.6v19.8h6.1c5.2 0 8.8-4 8.8-9.9zM11.8 97c-5 0-9.1-4.1-9.1-9.1V12.1c0-5 4.1-9.1 9.1-9.1h75.8c5 0 9.1 4.1 9.1 9.1v75.8c0 5-4.1 9.1-9.1 9.1H11.8zm37.6-26.9h17.4c12.7 0 21.6-8.3 21.6-20.2 0-11.8-8.7-20.1-21.2-20.1H49.4v40.3zm-15.6 0h14.9V29.9H33.8v14H26v-14H11v40.3h15V57h7.8v13.1z"/><path class="st1" d="M87.6 6c3.4 0 6.1 2.7 6.1 6.1v75.8c0 3.4-2.7 6.1-6.1 6.1H11.8c-3.4 0-6.1-2.7-6.1-6.1V12.1C5.7 8.7 8.5 6 11.8 6h75.8M51.8 26.9H30.9v14H29v-14H8v46.3h21V60h1.8v13.2h35.9c14.5 0 24.6-9.5 24.6-23.2 0-6.6-2.5-12.5-6.9-16.7-4.4-4.1-10.5-6.4-17.3-6.4H51.8M87.6 0H11.8C5.1 0-.3 5.4-.3 12.1v75.8c0 6.7 5.4 12.1 12.1 12.1h75.8c6.7 0 12.1-5.4 12.1-12.1V12.1C99.7 5.4 94.3 0 87.6 0zM52.4 67.1V32.9h14.8c10.9 0 18.2 6.9 18.2 17.1 0 10.2-7.5 17.2-18.6 17.2H52.4v-.1zM23 46.8h13.8v-14h8.9v34.3h-8.9V54H23v13.2h-9V32.9h9v13.9z"/><path class="st0" d="M64.4 56.9V43.1H67c3.8 0 6.3 2.7 6.3 6.9 0 4.1-2.3 6.8-5.8 6.8h-3.1z"/><path class="st1" d="M67.4 46.2c2.5.2 2.9 2.5 2.9 3.9s-.4 3.8-2.8 3.8h-.1v-7.7m-.4-6.1h-5.6v19.8h6.1c5.2 0 8.8-4 8.8-9.8 0-5.9-3.9-10-9.3-10zM-91-379.1c3.4 0 6.1 2.7 6.1 6.1v75.8c0 3.4-2.7 6.1-6.1 6.1h-75.8c-3.4 0-6.1-2.7-6.1-6.1V-373c0-3.4 2.7-6.1 6.1-6.1H-91m0-6h-75.8c-6.7 0-12.1 5.4-12.1 12.1v75.8c0 6.7 5.4 12.1 12.1 12.1H-91c6.7 0 12.1-5.4 12.1-12.1V-373c0-6.7-5.4-12.1-12.1-12.1z"/><path class="st2" d="M-155.2-352.3v14h13.8v-14h8.9v34.3h-8.9v-13.2h-13.8v13.2h-8.9v-34.3h8.9zM-92.8-335.1c0 10.2-7.5 17.2-18.6 17.2h-14.4v-34.3h14.8c10.8-.1 18.2 6.9 18.2 17.1zm-9.1.1c0-5.9-3.9-9.9-9.3-9.9h-5.6v19.8h6.1c5.1-.1 8.8-4.1 8.8-9.9z"/><path class="st0" d="M-91-498.6c3.4 0 6.1 2.7 6.1 6.1v75.8c0 3.4-2.7 6.1-6.1 6.1h-75.8c-3.4 0-6.1-2.7-6.1-6.1v-75.8c0-3.4 2.7-6.1 6.1-6.1H-91m0-6h-75.8c-6.7 0-12.1 5.4-12.1 12.1v75.8c0 6.7 5.4 12.1 12.1 12.1H-91c6.7 0 12.1-5.4 12.1-12.1v-75.8c0-6.6-5.4-12.1-12.1-12.1z"/><path class="st0" d="M-124.7-430.3h-2.8v9.8h3c2.6 0 4.4-2 4.4-4.9 0-2.9-1.9-4.9-4.6-4.9zM-97.4-430.3c-2.6 0-4.7 2.1-4.7 4.9s2.2 4.9 4.7 4.9c2.6 0 4.6-2.1 4.6-4.9s-2-4.9-4.6-4.9z"/><path class="st0" d="M-178.9-443.3v26.6c0 6.7 5.4 12.1 12.1 12.1H-91c6.7 0 12.1-5.4 12.1-12.1v-26.6h-100zm22.7 26.4-1.2-3h-7.4l-1.2 3h-4.6l7.3-17.1h4.6l7.2 17.1h-4.7zm21.2-7.2c0 4.5-3 7.3-7.8 7.3s-7.9-2.8-7.9-7.3v-9.9h4.5v9.9c0 2.2 1.5 3.6 3.5 3.6s3.3-1.3 3.3-3.6v-9.9h4.5v9.9zm10.2 7.2h-7.2V-434h7.4c5.4 0 9.1 3.5 9.1 8.5 0 5.1-3.7 8.6-9.3 8.6zm15.9 0h-4.5V-434h4.5v17.1zm11.5.2c-5.3 0-9.2-3.7-9.2-8.7 0-5 3.9-8.6 9.2-8.6s9.2 3.7 9.2 8.6c0 5-3.9 8.7-9.2 8.7z"/><path class="st0" d="M-163.4-423.3h4.7l-2.3-6.1zM-153.1-485.4v12.9h12.7v-12.9h8.2v31.6h-8.2V-466h-12.7v12.1h-8.2v-31.6h8.2zM-95.6-469.7c0 9.4-6.9 15.8-17.1 15.8H-126v-31.6h13.6c10 .1 16.8 6.5 16.8 15.8zm-8.4.1c0-5.4-3.6-9.1-8.6-9.1h-5.2v18.2h5.6c4.8 0 8.2-3.7 8.2-9.1zM-91-628.8c3.4 0 6.1 2.7 6.1 6.1v75.8c0 3.4-2.7 6.1-6.1 6.1h-75.8c-3.4 0-6.1-2.7-6.1-6.1v-75.8c0-3.4 2.7-6.1 6.1-6.1H-91m0-6h-75.8c-6.7 0-12.1 5.4-12.1 12.1v75.8c0 6.7 5.4 12.1 12.1 12.1H-91c6.7 0 12.1-5.4 12.1-12.1v-75.8c0-6.7-5.4-12.1-12.1-12.1z"/><path class="st0" d="M-91-534.8h-75.8c-6.7 0-12.1-5.4-12.1-12.1v-26.6h100v26.6c0 6.7-5.4 12.1-12.1 12.1z"/><path class="st3" d="M-157.3-550.1h-7.4l-1.2 3h-4.6l7.3-17.1h4.6l7.2 17.1h-4.7l-1.2-3zm-1.4-3.5-2.3-6.1-2.4 6.1h4.7zM-142.7-550.7c2 0 3.3-1.3 3.3-3.6v-9.9h4.5v9.9c0 4.5-3 7.3-7.8 7.3s-7.9-2.8-7.9-7.3v-9.9h4.5v9.9c-.1 2.2 1.3 3.6 3.4 3.6zM-115.5-555.7c0 5.1-3.7 8.5-9.2 8.5h-7.2v-17.1h7.4c5.3.1 9 3.6 9 8.6zm-4.6.1c0-2.9-1.9-4.9-4.6-4.9h-2.8v9.8h3c2.6 0 4.4-2 4.4-4.9zM-108.9-564.2v17.1h-4.5v-17.1h4.5zM-88.2-555.7c0 5-3.9 8.7-9.2 8.7s-9.2-3.7-9.2-8.7c0-5 3.9-8.6 9.2-8.6s9.2 3.7 9.2 8.6zm-13.9.1c0 2.8 2.2 4.9 4.7 4.9 2.6 0 4.6-2.1 4.6-4.9s-2-4.9-4.6-4.9c-2.5 0-4.7 2.1-4.7 4.9zM-153.7-64h-6.4l-1 2.6h-4l6.4-14.9h4l6.2 14.9h-4.1l-1.1-2.6zm-1.1-3-2-5.3-2.1 5.3h4.1zM-140.9-64.5c1.7 0 2.9-1.2 2.9-3.1v-8.6h3.9v8.6c0 3.9-2.6 6.4-6.8 6.4-4.2 0-6.9-2.5-6.9-6.4v-8.6h3.9v8.6c0 1.9 1.2 3.1 3 3.1zM-117.1-68.8c0 4.4-3.3 7.5-8.1 7.5h-6.3v-14.9h6.4c4.8-.1 8 3 8 7.4zm-4 0c0-2.6-1.7-4.3-4-4.3h-2.4v8.6h2.6c2.2 0 3.8-1.7 3.8-4.3zM-111.3-76.3v14.9h-3.9v-14.9h3.9zM-93.3-68.8c0 4.4-3.4 7.6-8.1 7.6s-8.1-3.3-8.1-7.6 3.4-7.5 8.1-7.5 8.1 3.2 8.1 7.5zm-12.1 0c0 2.4 1.9 4.3 4.1 4.3 2.2 0 4-1.9 4-4.3s-1.8-4.2-4-4.2c-2.2-.1-4.1 1.8-4.1 4.2z"/><path class="st0" d="M-91-256.9c3.4 0 6.1 2.7 6.1 6.1v75.8c0 3.4-2.7 6.1-6.1 6.1h-75.8c-3.4 0-6.1-2.7-6.1-6.1v-75.8c0-3.4 2.7-6.1 6.1-6.1H-91m0-6h-75.8c-6.7 0-12.1 5.4-12.1 12.1v75.8c0 6.7 5.4 12.1 12.1 12.1H-91c6.7 0 12.1-5.4 12.1-12.1v-75.8c0-6.7-5.4-12.1-12.1-12.1z"/><path class="st0" d="M-155.1-241.8v14h13.8v-14h8.9v34.3h-8.9v-13.2h-13.8v13.2h-8.9v-34.3h8.9zM-92.6-224.7c0 10.2-7.5 17.2-18.6 17.2h-14.4v-34.3h14.8c10.8 0 18.2 7 18.2 17.1zm-9.2.1c0-5.9-3.9-9.9-9.3-9.9h-5.6v19.8h6.1c5.2 0 8.8-4 8.8-9.9zM-153.7-186.8h-6.4l-1 2.6h-4l6.4-14.9h4l6.2 14.9h-4.1l-1.1-2.6zm-1.1-3-2-5.3-2.1 5.3h4.1zM-140.9-187.3c1.7 0 2.9-1.2 2.9-3.1v-8.6h3.9v8.6c0 3.9-2.6 6.4-6.8 6.4-4.2 0-6.9-2.5-6.9-6.4v-8.6h3.9v8.6c0 1.9 1.2 3.1 3 3.1zM-117.1-191.6c0 4.4-3.3 7.5-8.1 7.5h-6.3V-199h6.4c4.8-.1 8 3 8 7.4zm-4 0c0-2.6-1.7-4.3-4-4.3h-2.4v8.6h2.6c2.2 0 3.8-1.7 3.8-4.3zM-111.3-199.1v14.9h-3.9v-14.9h3.9zM-93.3-191.6c0 4.4-3.4 7.6-8.1 7.6s-8.1-3.3-8.1-7.6 3.4-7.5 8.1-7.5 8.1 3.2 8.1 7.5zm-12.1 0c0 2.4 1.9 4.3 4.1 4.3 2.2 0 4-1.9 4-4.3s-1.8-4.2-4-4.2-4.1 1.8-4.1 4.2zM-153.1-615.7v12.9h12.7v-12.9h8.2v31.6h-8.2v-12.1h-12.7v12.1h-8.2v-31.6h8.2zM-95.6-599.9c0 9.4-6.9 15.8-17.1 15.8H-126v-31.6h13.6c10 0 16.8 6.4 16.8 15.8zm-8.4.1c0-5.4-3.6-9.1-8.6-9.1h-5.2v18.2h5.6c4.8-.1 8.2-3.7 8.2-9.1zM-91-1025.6c3.4 0 6.1 2.7 6.1 6.1v75.8c0 3.4-2.7 6.1-6.1 6.1h-75.8c-3.4 0-6.1-2.7-6.1-6.1v-75.8c0-3.4 2.7-6.1 6.1-6.1H-91m0-6h-75.8c-6.7 0-12.1 5.4-12.1 12.1v75.8c0 6.7 5.4 12.1 12.1 12.1H-91c6.7 0 12.1-5.4 12.1-12.1v-75.8c0-6.7-5.4-12.1-12.1-12.1z"/><path class="st0" d="M-91-931.6h-75.8c-6.7 0-12.1-5.4-12.1-12.1v-37.9h100v37.9c0 6.7-5.4 12.1-12.1 12.1zM-164.9-1012.9v7h6.9v-7h4.5v17.1h-4.5v-6.5h-6.9v6.5h-4.5v-17.1h4.5zM-145.8-1012.9v17.1h-4.5v-17.1h4.5zM-125.5-995.8l-2.5-4.7H-131.3v4.7h-4.5v-17.1h7.7c4.5 0 7.1 2.2 7.1 6 0 2.6-1.1 4.5-3 5.5l3.6 5.6h-5.1zm-5.7-8.3h3.2c1.8 0 2.8-.9 2.8-2.7 0-1.7-1-2.6-2.8-2.6h-3.2v5.3zM-104.6-1012.9v3.6h-9v3.2h8.1v3.5h-8.1v3.2h9.2v3.6h-13.7v-17.1h13.5zM-95.4-1009.5c-1.1 0-1.8.4-1.8 1.2 0 2.8 9 1.2 9 7.3 0 3.5-3.1 5.3-6.9 5.3-2.8 0-5.8-1-7.9-2.7l1.7-3.5c1.8 1.5 4.4 2.6 6.2 2.6 1.3 0 2.1-.5 2.1-1.4 0-2.9-9-1.1-9-7.2 0-3.2 2.7-5.2 6.8-5.2 2.5 0 5 .8 6.8 1.9l-1.7 3.5c-1.6-1-3.9-1.8-5.3-1.8z"/><circle class="st0" cx="-140.5" cy="-1003.3" r="2.4"/><text transform="translate(-170.61 -951.114)" class="st3" style="font-family:'Montserrat-Bold';font-size:24.3309px">audio</text><path class="st1" d="M51.4-416.7h123.9v136.1H51.4z"/></svg>